<mxfile host="65bd71144e">
    <diagram id="-yKd4-HMBDkQZtuK9eO9" name="Page-1">
        <mxGraphModel dx="1156" dy="533" grid="1" gridSize="10" guides="1" tooltips="1" connect="1" arrows="1" fold="1" page="1" pageScale="1" pageWidth="850" pageHeight="1100" math="0" shadow="0">
            <root>
                <mxCell id="0"/>
                <mxCell id="1" parent="0"/>
                <mxCell id="2" value="" style="rounded=0;whiteSpace=wrap;html=1;fillColor=#f5f5f5;strokeColor=#666666;fontColor=#333333;" parent="1" vertex="1">
                    <mxGeometry x="10" y="181.25" width="833" height="128.75" as="geometry"/>
                </mxCell>
                <mxCell id="6" value="&lt;font style=&quot;font-size: 18px;&quot;&gt;DECSAI&lt;/font&gt;" style="whiteSpace=wrap;html=1;aspect=fixed;fillColor=#f5f5f5;fontColor=#333333;strokeColor=#666666;fontSize=18;" parent="1" vertex="1">
                    <mxGeometry x="40" y="208.44" width="74.37" height="74.37" as="geometry"/>
                </mxCell>
                <mxCell id="7" value="&lt;font style=&quot;font-size: 18px;&quot;&gt;UGR&lt;/font&gt;" style="whiteSpace=wrap;html=1;aspect=fixed;fillColor=#f5f5f5;fontColor=#333333;strokeColor=#666666;fontSize=18;" parent="1" vertex="1">
                    <mxGeometry x="386.5" y="205.63" width="80" height="80" as="geometry"/>
                </mxCell>
                <mxCell id="8" value="&lt;font style=&quot;font-size: 18px;&quot;&gt;Facultad de Ciencias&lt;/font&gt;" style="whiteSpace=wrap;html=1;aspect=fixed;fillColor=#f5f5f5;fontColor=#333333;strokeColor=#666666;" parent="1" vertex="1">
                    <mxGeometry x="730" y="203.44" width="84.37" height="84.37" as="geometry"/>
                </mxCell>
                <mxCell id="9" value="" style="rounded=0;whiteSpace=wrap;html=1;fillColor=#f5f5f5;fontColor=#333333;strokeColor=#666666;movable=1;resizable=1;rotatable=1;deletable=1;editable=1;connectable=1;" parent="1" vertex="1">
                    <mxGeometry x="10.01" y="310" width="833" height="370" as="geometry"/>
                </mxCell>
                <mxCell id="44" value="&lt;font color=&quot;#000000&quot;&gt;Hello, username&lt;br&gt;&lt;div style=&quot;&quot;&gt;&lt;span style=&quot;background-color: initial;&quot;&gt;&lt;u&gt;logout&lt;/u&gt;&lt;/span&gt;&lt;/div&gt;&lt;/font&gt;" style="text;html=1;strokeColor=none;fillColor=none;align=right;verticalAlign=middle;whiteSpace=wrap;rounded=0;" parent="1" vertex="1">
                    <mxGeometry x="721.37" y="330" width="100" height="30" as="geometry"/>
                </mxCell>
                <mxCell id="45" value="&lt;font style=&quot;font-size: 16px;&quot;&gt;Manage Users&lt;/font&gt;" style="rounded=1;whiteSpace=wrap;html=1;fillColor=#0066CC;fontColor=#F5F5F5;" parent="1" vertex="1">
                    <mxGeometry x="345" y="325" width="163" height="40" as="geometry"/>
                </mxCell>
                <mxCell id="46" value="&lt;b style=&quot;font-size: 20px;&quot;&gt;&amp;nbsp;Statistic 1&lt;br&gt;&lt;/b&gt;&lt;font color=&quot;#808080&quot; style=&quot;font-size: 13px;&quot;&gt;&amp;nbsp; Visible&lt;/font&gt;" style="rounded=1;whiteSpace=wrap;html=1;fontSize=16;fillColor=#f5f5f5;fontColor=#333333;strokeColor=#E6E6E6;align=left;verticalAlign=top;" parent="1" vertex="1">
                    <mxGeometry x="40" y="390" width="240" height="100" as="geometry"/>
                </mxCell>
                <mxCell id="47" value="Disable" style="rounded=1;whiteSpace=wrap;html=1;strokeColor=#CC0000;fontSize=13;fontColor=#CC0000;fillColor=#F5F5F5;fontStyle=1" parent="1" vertex="1">
                    <mxGeometry x="55" y="450" width="205" height="30" as="geometry"/>
                </mxCell>
                <mxCell id="50" value="&lt;b style=&quot;font-size: 20px;&quot;&gt;&amp;nbsp;Statistic 2&lt;br&gt;&lt;/b&gt;&lt;font color=&quot;#808080&quot; style=&quot;font-size: 13px;&quot;&gt;&amp;nbsp; Not Visible&lt;/font&gt;" style="rounded=1;whiteSpace=wrap;html=1;fontSize=16;fillColor=#f5f5f5;fontColor=#333333;strokeColor=#E6E6E6;align=left;verticalAlign=top;" parent="1" vertex="1">
                    <mxGeometry x="306.51" y="390" width="240" height="100" as="geometry"/>
                </mxCell>
                <mxCell id="51" value="Enable" style="rounded=1;whiteSpace=wrap;html=1;strokeColor=#006600;fontSize=13;fontColor=#006600;fillColor=#F5F5F5;fontStyle=1" parent="1" vertex="1">
                    <mxGeometry x="321.51" y="450" width="205" height="30" as="geometry"/>
                </mxCell>
                <mxCell id="52" value="&lt;b style=&quot;font-size: 20px;&quot;&gt;&amp;nbsp;Statistic 3&lt;br&gt;&lt;/b&gt;&lt;font color=&quot;#808080&quot; style=&quot;font-size: 13px;&quot;&gt;&amp;nbsp; Visible&lt;/font&gt;" style="rounded=1;whiteSpace=wrap;html=1;fontSize=16;fillColor=#f5f5f5;fontColor=#333333;strokeColor=#E6E6E6;align=left;verticalAlign=top;" parent="1" vertex="1">
                    <mxGeometry x="581.37" y="390" width="240" height="100" as="geometry"/>
                </mxCell>
                <mxCell id="53" value="Disable" style="rounded=1;whiteSpace=wrap;html=1;strokeColor=#CC0000;fontSize=13;fontColor=#CC0000;fillColor=#F5F5F5;fontStyle=1" parent="1" vertex="1">
                    <mxGeometry x="596.37" y="450" width="205" height="30" as="geometry"/>
                </mxCell>
            </root>
        </mxGraphModel>
    </diagram>
</mxfile>